<svg width="421" height="87" viewBox="0 0 421 87" fill="none" xmlns="http://www.w3.org/2000/svg">
<path d="M110 65.4V23.4H127.88C130.64 23.4 132.96 23.8 134.84 24.6C136.76 25.4 138.2 26.6 139.16 28.2C140.16 29.76 140.66 31.66 140.66 33.9C140.66 36.22 140.04 38.18 138.8 39.78C137.56 41.38 135.82 42.48 133.58 43.08L133.52 41.88C135.4 42.28 137.04 43 138.44 44.04C139.84 45.04 140.92 46.3 141.68 47.82C142.48 49.3 142.88 51 142.88 52.92C142.88 54.96 142.54 56.76 141.86 58.32C141.22 59.88 140.26 61.18 138.98 62.22C137.7 63.26 136.18 64.06 134.42 64.62C132.66 65.14 130.68 65.4 128.48 65.4H110ZM117.62 58.38H128.12C129.6 58.38 130.84 58.16 131.84 57.72C132.88 57.28 133.66 56.64 134.18 55.8C134.74 54.92 135.02 53.88 135.02 52.68C135.02 51.56 134.72 50.6 134.12 49.8C133.56 49 132.74 48.4 131.66 48C130.58 47.56 129.3 47.34 127.82 47.34H117.62V58.38ZM117.62 40.62H127.16C128.32 40.62 129.32 40.4 130.16 39.96C131.04 39.52 131.72 38.92 132.2 38.16C132.68 37.4 132.92 36.52 132.92 35.52C132.92 33.92 132.38 32.68 131.3 31.8C130.22 30.88 128.64 30.42 126.56 30.42H117.62V40.62Z" fill="#1A1423"/>
<path d="M149.873 65.4V21H157.313V65.4H149.873Z" fill="#1A1423"/>
<path d="M180.219 66C176.899 66 173.959 65.3 171.399 63.9C168.879 62.5 166.899 60.6 165.459 58.2C164.059 55.76 163.359 52.98 163.359 49.86C163.359 47.38 163.759 45.12 164.559 43.08C165.359 41.04 166.459 39.28 167.859 37.8C169.299 36.28 170.999 35.12 172.959 34.32C174.959 33.48 177.139 33.06 179.499 33.06C181.579 33.06 183.519 33.46 185.319 34.26C187.119 35.06 188.679 36.16 189.999 37.56C191.319 38.92 192.319 40.56 192.999 42.48C193.719 44.36 194.059 46.42 194.019 48.66L193.959 51.24H168.339L166.959 46.2H187.779L186.819 47.22V45.9C186.699 44.66 186.299 43.58 185.619 42.66C184.939 41.7 184.059 40.96 182.979 40.44C181.939 39.88 180.779 39.6 179.499 39.6C177.539 39.6 175.879 39.98 174.519 40.74C173.199 41.5 172.199 42.6 171.519 44.04C170.839 45.44 170.499 47.2 170.499 49.32C170.499 51.36 170.919 53.14 171.759 54.66C172.639 56.18 173.859 57.36 175.419 58.2C177.019 59 178.879 59.4 180.999 59.4C182.479 59.4 183.839 59.16 185.079 58.68C186.319 58.2 187.659 57.34 189.099 56.1L192.759 61.2C191.679 62.2 190.439 63.06 189.039 63.78C187.679 64.46 186.239 65 184.719 65.4C183.199 65.8 181.699 66 180.219 66Z" fill="#1A1423"/>
<path d="M200.555 65.4V33.78H207.755L207.875 40.26L206.495 40.98C206.895 39.54 207.675 38.24 208.835 37.08C209.995 35.88 211.375 34.92 212.975 34.2C214.575 33.48 216.215 33.12 217.895 33.12C220.295 33.12 222.295 33.6 223.895 34.56C225.535 35.52 226.755 36.96 227.555 38.88C228.395 40.8 228.815 43.2 228.815 46.08V65.4H221.435V46.62C221.435 45.02 221.215 43.7 220.775 42.66C220.335 41.58 219.655 40.8 218.735 40.32C217.815 39.8 216.695 39.56 215.375 39.6C214.295 39.6 213.295 39.78 212.375 40.14C211.495 40.46 210.715 40.94 210.035 41.58C209.395 42.18 208.875 42.88 208.475 43.68C208.115 44.48 207.935 45.36 207.935 46.32V65.4H204.275C203.555 65.4 202.875 65.4 202.235 65.4C201.635 65.4 201.075 65.4 200.555 65.4Z" fill="#1A1423"/>
<path d="M249.837 66C247.037 66 244.518 65.3 242.277 63.9C240.077 62.46 238.318 60.52 236.997 58.08C235.717 55.6 235.077 52.76 235.077 49.56C235.077 46.4 235.717 43.58 236.997 41.1C238.277 38.62 240.018 36.68 242.217 35.28C244.458 33.84 246.977 33.12 249.777 33.12C251.298 33.12 252.758 33.36 254.158 33.84C255.598 34.32 256.878 34.98 257.997 35.82C259.117 36.62 259.997 37.52 260.637 38.52C261.318 39.52 261.697 40.56 261.777 41.64L259.798 41.88V21H267.178V65.4H260.038L259.857 57.96L261.298 58.08C261.258 59.08 260.898 60.04 260.217 60.96C259.577 61.88 258.737 62.72 257.697 63.48C256.658 64.24 255.438 64.86 254.038 65.34C252.678 65.78 251.277 66 249.837 66ZM251.277 59.76C252.997 59.76 254.517 59.32 255.837 58.44C257.158 57.56 258.178 56.36 258.898 54.84C259.658 53.32 260.038 51.56 260.038 49.56C260.038 47.6 259.658 45.86 258.898 44.34C258.178 42.78 257.158 41.58 255.837 40.74C254.517 39.86 252.997 39.42 251.277 39.42C249.557 39.42 248.038 39.86 246.717 40.74C245.397 41.58 244.357 42.78 243.598 44.34C242.878 45.86 242.518 47.6 242.518 49.56C242.518 51.56 242.878 53.32 243.598 54.84C244.357 56.36 245.397 57.56 246.717 58.44C248.038 59.32 249.557 59.76 251.277 59.76Z" fill="#1A1423"/>
<path d="M293.015 66C291.615 66 290.235 65.8 288.875 65.4C287.555 64.96 286.355 64.38 285.275 63.66C284.195 62.94 283.295 62.14 282.575 61.26C281.855 60.34 281.375 59.42 281.135 58.5L282.875 57.72L282.695 65.28H275.555V21H282.935V41.1L281.615 40.5C281.815 39.54 282.255 38.64 282.935 37.8C283.655 36.92 284.535 36.14 285.575 35.46C286.615 34.74 287.755 34.18 288.995 33.78C290.235 33.34 291.495 33.12 292.775 33.12C295.615 33.12 298.115 33.82 300.275 35.22C302.475 36.62 304.195 38.56 305.435 41.04C306.715 43.52 307.355 46.34 307.355 49.5C307.355 52.7 306.735 55.54 305.495 58.02C304.255 60.5 302.535 62.46 300.335 63.9C298.175 65.3 295.735 66 293.015 66ZM291.455 59.52C293.135 59.52 294.635 59.1 295.955 58.26C297.275 57.38 298.315 56.2 299.075 54.72C299.835 53.2 300.215 51.46 300.215 49.5C300.215 47.58 299.835 45.88 299.075 44.4C298.355 42.92 297.335 41.76 296.015 40.92C294.695 40.08 293.175 39.66 291.455 39.66C289.735 39.66 288.215 40.08 286.895 40.92C285.575 41.76 284.535 42.92 283.775 44.4C283.015 45.88 282.635 47.58 282.635 49.5C282.635 51.46 283.015 53.2 283.775 54.72C284.535 56.2 285.575 57.38 286.895 58.26C288.215 59.1 289.735 59.52 291.455 59.52Z" fill="#1A1423"/>
<path d="M325.874 66C323.274 66 320.914 65.28 318.794 63.84C316.674 62.4 314.974 60.44 313.694 57.96C312.414 55.48 311.774 52.66 311.774 49.5C311.774 46.34 312.414 43.52 313.694 41.04C314.974 38.56 316.714 36.62 318.914 35.22C321.114 33.82 323.594 33.12 326.354 33.12C327.954 33.12 329.414 33.36 330.734 33.84C332.054 34.28 333.214 34.92 334.214 35.76C335.214 36.6 336.034 37.56 336.674 38.64C337.354 39.72 337.814 40.88 338.054 42.12L336.434 41.7V33.78H343.874V65.4H336.374V57.84L338.114 57.54C337.834 58.62 337.314 59.68 336.554 60.72C335.834 61.72 334.914 62.62 333.794 63.42C332.714 64.18 331.494 64.8 330.134 65.28C328.814 65.76 327.394 66 325.874 66ZM327.914 59.46C329.634 59.46 331.154 59.04 332.474 58.2C333.794 57.36 334.814 56.2 335.534 54.72C336.294 53.2 336.674 51.46 336.674 49.5C336.674 47.58 336.294 45.88 335.534 44.4C334.814 42.92 333.794 41.76 332.474 40.92C331.154 40.08 329.634 39.66 327.914 39.66C326.194 39.66 324.674 40.08 323.354 40.92C322.074 41.76 321.074 42.92 320.354 44.4C319.634 45.88 319.274 47.58 319.274 49.5C319.274 51.46 319.634 53.2 320.354 54.72C321.074 56.2 322.074 57.36 323.354 58.2C324.674 59.04 326.194 59.46 327.914 59.46Z" fill="#1A1423"/>
<path d="M362.99 66C360.19 66 357.67 65.54 355.43 64.62C353.23 63.66 351.43 62.3 350.03 60.54L354.83 56.4C356.03 57.76 357.37 58.74 358.85 59.34C360.33 59.94 361.89 60.24 363.53 60.24C364.21 60.24 364.81 60.16 365.33 60C365.89 59.84 366.37 59.6 366.77 59.28C367.17 58.96 367.47 58.6 367.67 58.2C367.91 57.76 368.03 57.28 368.03 56.76C368.03 55.8 367.67 55.04 366.95 54.48C366.55 54.2 365.91 53.9 365.03 53.58C364.19 53.26 363.09 52.94 361.73 52.62C359.57 52.06 357.77 51.42 356.33 50.7C354.89 49.94 353.77 49.1 352.97 48.18C352.29 47.42 351.77 46.56 351.41 45.6C351.09 44.64 350.93 43.6 350.93 42.48C350.93 41.08 351.23 39.82 351.83 38.7C352.47 37.54 353.33 36.54 354.41 35.7C355.49 34.86 356.75 34.22 358.19 33.78C359.63 33.34 361.13 33.12 362.69 33.12C364.29 33.12 365.83 33.32 367.31 33.72C368.83 34.12 370.23 34.7 371.51 35.46C372.83 36.18 373.95 37.06 374.87 38.1L370.79 42.6C370.03 41.88 369.19 41.24 368.27 40.68C367.39 40.12 366.49 39.68 365.57 39.36C364.65 39 363.79 38.82 362.99 38.82C362.23 38.82 361.55 38.9 360.95 39.06C360.35 39.18 359.85 39.38 359.45 39.66C359.05 39.94 358.73 40.3 358.49 40.74C358.29 41.14 358.19 41.62 358.19 42.18C358.23 42.66 358.35 43.12 358.55 43.56C358.79 43.96 359.11 44.3 359.51 44.58C359.95 44.86 360.61 45.18 361.49 45.54C362.37 45.9 363.51 46.24 364.91 46.56C366.87 47.08 368.51 47.66 369.83 48.3C371.15 48.94 372.19 49.68 372.95 50.52C373.71 51.24 374.25 52.08 374.57 53.04C374.89 54 375.05 55.06 375.05 56.22C375.05 58.1 374.51 59.78 373.43 61.26C372.39 62.74 370.95 63.9 369.11 64.74C367.31 65.58 365.27 66 362.99 66Z" fill="#1A1423"/>
<path d="M396.371 66C393.051 66 390.111 65.3 387.551 63.9C385.031 62.5 383.051 60.6 381.611 58.2C380.211 55.76 379.511 52.98 379.511 49.86C379.511 47.38 379.911 45.12 380.711 43.08C381.511 41.04 382.611 39.28 384.011 37.8C385.451 36.28 387.151 35.12 389.111 34.32C391.111 33.48 393.291 33.06 395.651 33.06C397.731 33.06 399.671 33.46 401.471 34.26C403.271 35.06 404.831 36.16 406.151 37.56C407.471 38.92 408.471 40.56 409.151 42.48C409.871 44.36 410.211 46.42 410.171 48.66L410.111 51.24H384.491L383.111 46.2H403.931L402.971 47.22V45.9C402.851 44.66 402.451 43.58 401.771 42.66C401.091 41.7 400.211 40.96 399.131 40.44C398.091 39.88 396.931 39.6 395.651 39.6C393.691 39.6 392.031 39.98 390.671 40.74C389.351 41.5 388.351 42.6 387.671 44.04C386.991 45.44 386.651 47.2 386.651 49.32C386.651 51.36 387.071 53.14 387.911 54.66C388.791 56.18 390.011 57.36 391.571 58.2C393.171 59 395.031 59.4 397.151 59.4C398.631 59.4 399.991 59.16 401.231 58.68C402.471 58.2 403.811 57.34 405.251 56.1L408.911 61.2C407.831 62.2 406.591 63.06 405.191 63.78C403.831 64.46 402.391 65 400.871 65.4C399.351 65.8 397.851 66 396.371 66Z" fill="#1A1423"/>
<path fill-rule="evenodd" clip-rule="evenodd" d="M33.3334 30.4157L45 23.6236H45.0001L56.6666 30.4156V30.4158L45 37.208L45 37.2081L33.3334 44.0001V57.6236V57.6237V71.2077L45 78L56.6667 71.2077V71.2077L68.3333 64.4157L68.3333 64.4156L79.9999 57.6236V44L68.3333 50.792L68.3333 50.7921L56.6666 57.6236V57.6236L45 64.4157L33.3335 57.6237L45 50.7922L45 50.7922L56.6667 44.0001V43.9999L68.3333 37.2079L79.9999 44V30.4156L68.3333 23.6236L56.6666 30.4156L56.6666 16.7923L45.0001 10H45L33.3334 16.7923V30.4157ZM33.3333 16.7922V30.4157L21.6667 37.2079L21.6666 37.2079L10 44V30.4156L21.6666 23.6236L21.6667 23.6236L33.3333 16.7922ZM10 57.6236L21.6667 64.4157L33.3333 57.6236V44L21.6667 50.7921L10 44V57.6236Z" fill="#1F2BFF"/>
</svg>
