<svg width="32" height="32" viewBox="0 0 32 32" fill="none" xmlns="http://www.w3.org/2000/svg">
<path fill-rule="evenodd" clip-rule="evenodd" d="M15.1624 4.01038C13.0977 4.19124 11.7744 4.54046 10.1767 5.32605C7.08574 6.84585 4.74309 9.48943 3.6521 12.6888C2.99444 14.6175 2.82818 16.8041 3.18086 18.8873C3.86585 22.9333 6.71183 26.5692 10.5246 28.2694C11.7142 28.8 12.1922 28.9041 12.5075 28.7015C12.7663 28.5353 12.7931 28.3689 12.7723 27.0532C12.7619 26.3918 12.7423 25.8398 12.7287 25.8265C12.7152 25.8132 12.59 25.8243 12.4506 25.8512C12.0541 25.9278 10.886 25.9116 10.3725 25.8223C9.77662 25.7188 9.27705 25.48 8.92067 25.1287C8.63565 24.8477 8.61872 24.8202 8.24861 24.0375C7.88706 23.2729 7.49966 22.79 6.97433 22.4488C6.63803 22.2305 6.40512 21.9405 6.47669 21.8293C6.62586 21.5975 7.28581 21.6446 7.84909 21.9273C8.30284 22.155 8.7166 22.5381 9.03314 23.0235C9.38339 23.5607 9.79497 23.9527 10.2283 24.1617C10.5682 24.3257 10.5838 24.3282 11.2586 24.3282C11.8288 24.3282 12.0049 24.3094 12.3082 24.2159C12.5086 24.1542 12.7054 24.0715 12.7456 24.032C12.7857 23.9927 12.8343 23.8579 12.8534 23.7325C12.9133 23.3413 13.1367 22.8742 13.4223 22.5433C13.5148 22.4361 13.5837 22.3417 13.5755 22.3336C13.5672 22.3255 13.3316 22.2852 13.0519 22.244C12.0436 22.0955 11.4444 21.9272 10.7273 21.5909C9.8748 21.191 9.19316 20.6575 8.78559 20.0711C8.3697 19.4727 7.99999 18.5309 7.83191 17.6417C7.70342 16.9619 7.70169 15.3768 7.82892 14.8624C8.01018 14.1293 8.31344 13.5199 8.78858 12.934C9.02174 12.6465 9.03786 12.6098 8.98311 12.4921C8.86511 12.2381 8.77585 11.6663 8.77585 11.1641C8.77585 10.5797 8.82086 10.2982 9.01383 9.67597L9.15058 9.23482L9.58416 9.25977C9.91692 9.2789 10.1355 9.32769 10.5246 9.46976C11.1712 9.70588 11.8367 10.0229 12.339 10.3341L12.7342 10.5789L12.9979 10.5093C13.5258 10.3698 14.3843 10.2404 15.1699 10.1819C16.3451 10.0943 17.8823 10.2276 18.9507 10.5097L19.2163 10.5798L19.5083 10.395C20.2508 9.92486 21.3841 9.41246 21.9397 9.29564C22.0797 9.26623 22.3265 9.24894 22.4881 9.25723L22.7819 9.27234L22.9004 9.61733C23.0874 10.1619 23.171 10.6445 23.171 11.18C23.171 11.6683 23.0806 12.2406 22.9637 12.4921C22.909 12.6098 22.9251 12.6465 23.1583 12.934C23.8634 13.8035 24.1677 14.635 24.2188 15.8313C24.2924 17.5583 23.8672 19.1557 23.0548 20.204C22.4216 21.0211 21.1178 21.7778 19.8398 22.0699C19.6036 22.1239 19.1799 22.202 18.8984 22.2435C18.6168 22.285 18.3753 22.3298 18.3617 22.3431C18.3481 22.3564 18.4195 22.4508 18.5203 22.5527C18.7543 22.7894 18.9386 23.1525 19.0735 23.6426C19.1721 24.0011 19.1819 24.1939 19.2044 26.2164C19.2312 28.6293 19.2305 28.6242 19.5486 28.7545C19.8006 28.8577 19.919 28.8442 20.4694 28.649C22.9999 27.7517 25.1275 26.1143 26.7297 23.8314C27.9354 22.1133 28.7287 19.9549 28.8802 17.9804C28.8986 17.7413 28.933 17.5456 28.9568 17.5456C28.9805 17.5456 29 17.1418 29 16.6483C29 16.0627 28.9824 15.7616 28.9493 15.7817C28.9186 15.8002 28.8986 15.7305 28.8986 15.6046C28.8986 15.0113 28.6077 13.6068 28.2947 12.6888C26.7121 8.04779 22.4601 4.63497 17.5701 4.08093C17.0684 4.02409 15.523 3.97882 15.1624 4.01038ZM3.01856 16.7009C3.01856 17.2065 3.02612 17.4133 3.03529 17.1605C3.04451 16.9077 3.04451 16.4941 3.03529 16.2413C3.02612 15.9885 3.01856 16.1953 3.01856 16.7009Z" fill="black"/>
</svg>
