<svg width="32" height="32" viewBox="0 0 32 32" fill="none" xmlns="http://www.w3.org/2000/svg">
<path fill-rule="evenodd" clip-rule="evenodd" d="M16 29C23.1797 29 29 23.1797 29 16C29 8.8203 23.1797 3 16 3C8.8203 3 3 8.8203 3 16C3 23.1797 8.8203 29 16 29ZM22.7729 9.96143C22.7839 9.9658 22.7929 9.97381 22.7983 9.98405C25.0055 13.139 26.0956 16.6978 25.6879 20.7949C25.6871 20.8035 25.6844 20.8118 25.6801 20.8194C25.6757 20.8269 25.6697 20.8334 25.6625 20.8386C24.1853 21.9022 22.5321 22.713 20.7743 23.2359C20.7619 23.2396 20.7486 23.2394 20.7363 23.2353C20.724 23.2313 20.7133 23.2236 20.7058 23.2133C20.334 22.7119 20.0006 22.1846 19.7081 21.6358C19.7041 21.6282 19.7018 21.6199 19.7013 21.6114C19.7008 21.6029 19.7022 21.5944 19.7053 21.5864C19.7085 21.5784 19.7133 21.5712 19.7195 21.5652C19.7257 21.5591 19.7332 21.5545 19.7414 21.5514C20.2693 21.3584 20.7796 21.1225 21.2667 20.846C21.2755 20.8409 21.2829 20.8337 21.2882 20.8251C21.2935 20.8166 21.2966 20.8069 21.2971 20.7969C21.2977 20.7869 21.2956 20.7769 21.2913 20.7679C21.2869 20.7588 21.2803 20.751 21.2721 20.745C21.1689 20.6703 21.0664 20.592 20.9686 20.5136C20.9597 20.5066 20.949 20.5021 20.9377 20.5008C20.9264 20.4995 20.9149 20.5013 20.9046 20.5061C17.7439 21.9253 14.2811 21.9253 11.0826 20.5061C11.0723 20.5016 11.0609 20.5 11.0498 20.5014C11.0386 20.5029 11.0281 20.5074 11.0194 20.5143C10.9216 20.5927 10.8191 20.6703 10.7167 20.745C10.7085 20.751 10.7019 20.7589 10.6976 20.768C10.6933 20.7771 10.6914 20.7871 10.692 20.7971C10.6926 20.8071 10.6957 20.8167 10.7011 20.8253C10.7065 20.8338 10.7139 20.8409 10.7228 20.846C11.211 21.1202 11.7208 21.3563 12.2474 21.5522C12.2556 21.5551 12.2631 21.5597 12.2693 21.5656C12.2756 21.5715 12.2805 21.5787 12.2837 21.5866C12.2869 21.5945 12.2883 21.603 12.2879 21.6114C12.2875 21.6199 12.2852 21.6282 12.2813 21.6358C11.9937 22.1877 11.6597 22.7156 11.2829 23.2141C11.2751 23.2242 11.2644 23.2316 11.2521 23.2355C11.2399 23.2394 11.2267 23.2396 11.2143 23.236C9.45965 22.7113 7.80942 21.9006 6.33404 20.8386C6.32695 20.8332 6.32105 20.8265 6.31668 20.8188C6.31231 20.8112 6.30957 20.8028 6.30861 20.7941C5.96811 17.2503 6.6622 13.662 9.19595 9.9833C9.20215 9.97356 9.2113 9.96593 9.22215 9.96146C10.4891 9.39573 11.8265 8.99264 13.2004 8.76233C13.2129 8.76042 13.2256 8.76221 13.2371 8.76745C13.2485 8.7727 13.258 8.78116 13.2644 8.79174C13.4506 9.11211 13.6186 9.44223 13.7674 9.78059C15.2483 9.56204 16.7547 9.56204 18.2356 9.78059C18.3834 9.44308 18.5487 9.11305 18.7308 8.79174C18.7369 8.78093 18.7464 8.77226 18.7579 8.76698C18.7694 8.7617 18.7823 8.76008 18.7947 8.76233C20.1686 8.99313 21.5058 9.39619 22.7729 9.96143ZM11.0025 16.722C11.0025 17.7771 11.7959 18.6363 12.7589 18.6363C13.7373 18.6363 14.5154 17.7771 14.5154 16.7219C14.5308 15.6743 13.745 14.8076 12.7589 14.8076C11.7806 14.8076 11.0025 15.6668 11.0025 16.722ZM17.4967 16.722C17.4967 17.7771 18.2901 18.6363 19.2531 18.6363C20.2392 18.6363 21.0096 17.7771 21.0096 16.7219C21.025 15.6743 20.2392 14.8076 19.2531 14.8076C18.2748 14.8076 17.4967 15.6668 17.4967 16.722Z" fill="black"/>
</svg>
